<?xml version="1.0" encoding="utf-8"?>
<!-- Generator: Adobe Illustrator 22.1.0, SVG Export Plug-In . SVG Version: 6.00 Build 0)  -->
<svg version="1.1" id="Layer_1" xmlns="http://www.w3.org/2000/svg" xmlns:xlink="http://www.w3.org/1999/xlink" x="0px" y="0px"
	 viewBox="0 0 30 30" style="enable-background:new 0 0 30 30;" xml:space="preserve">
<style type="text/css">
	.st0{fill:#FFFFFF;}
</style>
<g>
	<rect x="3" y="21" class="st0" width="3" height="3"/>
	<rect x="6" y="24" class="st0" width="3" height="3"/>
	<rect y="18" class="st0" width="3" height="3"/>
	<rect x="3" y="15" class="st0" width="3" height="3"/>
	<rect x="6" y="12" class="st0" width="3" height="3"/>
	<polygon class="st0" points="12,15 15,15 15,18 18,18 18,21 21,21 21,18 24,18 24,15 27,15 27,12 30,12 30,9 27,9 27,6 24,6 24,3 
		21,3 21,0 18,0 18,3 15,3 15,6 12,6 12,9 9,9 9,12 12,12 	"/>
	<rect x="15" y="21" class="st0" width="3" height="3"/>
	<polygon class="st0" points="12,24 12,27 9,27 9,30 12,30 15,30 18,30 21,30 24,30 27,30 30,30 30,27 27,27 24,27 21,27 18,27 
		15,27 15,24 	"/>
</g>
</svg>
