<?xml version="1.0" encoding="utf-8"?>
<!-- Generator: Adobe Illustrator 22.1.0, SVG Export Plug-In . SVG Version: 6.00 Build 0)  -->
<svg version="1.1" id="Layer_1" xmlns="http://www.w3.org/2000/svg" xmlns:xlink="http://www.w3.org/1999/xlink" x="0px" y="0px"
	 viewBox="0 0 27 27" style="enable-background:new 0 0 27 27;" xml:space="preserve">
<g>
	<g transform="translate(50 50) scale(0.69 0.69) rotate(0) translate(-50 -50)">
		<title>Arrow Down Left</title>
		<desc>Created with Sketch.</desc>
		<g>
			<path d="M3.3-11.3c0-3.7,0-7.5,0-11.2H1C1-17.2,1-12,1-6.8c5.2,0,10.4,0,15.7,0V-9C12.9-9,9.2-9,5.5-9v-2.2H3.3L3.3-11.3z"/>
			<polygon points="16.7,-22.5 14.4,-22.5 14.4,-20.2 16.7,-20.2 			"/>
			<polygon points="14.4,-20.2 12.2,-20.2 12.2,-18 14.4,-18 			"/>
			<polygon points="10,-15.8 7.7,-15.8 7.7,-13.5 10,-13.5 			"/>
			<polygon points="12.2,-18 10,-18 10,-15.8 12.2,-15.8 			"/>
			<polygon points="7.7,-13.5 5.5,-13.5 5.5,-11.3 7.7,-11.3 			"/>
		</g>
	</g>
</g>
<g>
	<g transform="translate(50 50) scale(0.69 0.69) rotate(0) translate(-50 -50)">
		<title>Arrow Down Left</title>
		<desc>Created with Sketch.</desc>
		<g>
			<path d="M-9,5.5c0,3.7,0,7.5,0,11.2h2.2c0-5.2,0-10.4,0-15.7C-12,1-17.2,1-22.5,1v2.2c3.7,0,7.5,0,11.2,0v2.2H-9L-9,5.5z"/>
			<polygon points="-22.5,16.7 -20.2,16.7 -20.2,14.4 -22.5,14.4 			"/>
			<polygon points="-20.2,14.4 -18,14.4 -18,12.2 -20.2,12.2 			"/>
			<polygon points="-15.8,10 -13.5,10 -13.5,7.7 -15.8,7.7 			"/>
			<polygon points="-18,12.2 -15.8,12.2 -15.8,10 -18,10 			"/>
			<polygon points="-13.5,7.7 -11.3,7.7 -11.3,5.5 -13.5,5.5 			"/>
		</g>
	</g>
</g>
</svg>
