<?xml version="1.0" encoding="utf-8"?>
<!-- Generator: Adobe Illustrator 22.1.0, SVG Export Plug-In . SVG Version: 6.00 Build 0)  -->
<svg version="1.1" id="Layer_1" xmlns="http://www.w3.org/2000/svg" xmlns:xlink="http://www.w3.org/1999/xlink" x="0px" y="0px"
	 viewBox="0 0 12 12" style="enable-background:new 0 0 12 12;" xml:space="preserve">
<style type="text/css">
	.st0{fill:#FFFFFF;}
</style>
<polygon class="st0" points="10,0 8,0 6,0 4,0 2,0 2,2 4,2 6,2 6,4 4,4 4,6 2,6 2,8 0,8 0,10 2,10 2,12 4,12 4,10 6,10 6,8 8,8 8,6 
	10,6 10,8 10,10 12,10 12,8 12,6 12,4 12,2 12,0 "/>
</svg>
