<?xml version="1.0" encoding="utf-8"?>
<!-- Generator: Adobe Illustrator 22.1.0, SVG Export Plug-In . SVG Version: 6.00 Build 0)  -->
<svg version="1.1" id="Layer_1" xmlns="http://www.w3.org/2000/svg" xmlns:xlink="http://www.w3.org/1999/xlink" x="0px" y="0px"
	 viewBox="0 0 33 27" style="enable-background:new 0 0 33 27;" xml:space="preserve">
<style type="text/css">
	.st0{fill:#FFFFFF;}
</style>
<g>
	<polygon class="st0" points="3,0 3,3 0,3 0,5.9 3,5.9 5.9,5.9 5.9,3 5.9,0 	"/>
	<path class="st0" d="M24.1,8.9v-3H8.9v3h-3V12v3v3.1h3V21V24h3v-3h3v3h3.3v-3h3v3h3V21v-2.8h3V15v-3V8.9H24.1z M8.9,11.9h5.9v3H8.9
		V11.9z M24.1,14.8h-5.9v-3h5.9V14.8z"/>
	<polygon class="st0" points="27.1,21.1 27.1,23.9 27.1,27 30,27 30,24 33,24 33,21.1 	"/>
	<polygon class="st0" points="30,3 30,0 27.1,0 27.1,3 27.1,5.9 33,5.9 33,3 	"/>
	<polygon class="st0" points="0,21.1 0,24 3,24 3,27 5.9,27 5.9,23.9 5.9,21.1 	"/>
</g>
</svg>
