<?xml version="1.0" encoding="utf-8"?>
<!-- Generator: Adobe Illustrator 22.1.0, SVG Export Plug-In . SVG Version: 6.00 Build 0)  -->
<svg version="1.1" id="Layer_1" xmlns="http://www.w3.org/2000/svg" xmlns:xlink="http://www.w3.org/1999/xlink" x="0px" y="0px"
	 viewBox="0 0 158 107" style="enable-background:new 0 0 158 107;" xml:space="preserve">
<style type="text/css">
	.st0{fill:#FFFFFF;}
</style>
<polygon class="st0" points="104.3,71.3 101.9,71.3 101.9,53.5 100,53.5 100,35.7 98.6,35.7 96.9,35.7 96.9,19.6 95.4,19.6 
	95.4,1.8 77.5,1.8 77.5,5.4 70.1,5.4 70.1,11.9 64.2,11.9 64.2,23.1 55.3,23.1 55.3,28.6 55.3,36.6 53.4,36.6 48.2,36.6 48.2,52.3 
	41.7,52.3 41.7,71.4 39.2,71.4 39.2,74.7 37.1,74.7 37.1,62.4 36,62.4 36,44.6 32.9,44.6 32.9,28.6 32.7,28.6 30.3,28.6 30.3,14.3 
	23.9,14.3 23.9,6.8 17.9,6.8 17.9,1.8 0,1.8 0,19.6 1.3,19.6 1.3,35.7 3.4,35.7 3.4,53.5 5.9,53.5 5.9,71.3 10.3,71.4 10.3,89.2 
	14.8,89.2 14.8,107 32.7,107 32.7,103.4 41.8,103.4 41.8,98.1 50.6,98.1 50.6,89.2 57.1,89.2 57.1,78.9 63.8,78.9 63.8,68.4 
	68.5,68.4 68.5,54.4 71.3,54.4 71.3,46.5 73.2,46.5 73.2,41.1 75,41.1 75,53.5 77.5,53.5 77.5,71.3 79,71.4 79,89.2 82.1,89.2 
	82.1,107 100,107 100,103.4 113.3,103.4 113.3,94.5 122.2,94.5 122.2,83.6 127.2,83.6 127.2,71.7 132.6,71.7 132.6,61.2 138.1,61.2 
	138.1,52.3 141.6,52.3 141.6,44.6 145.1,44.6 145.1,37.5 147,37.5 147,31.7 150.5,31.7 150.5,24.6 154,24.6 154,17.8 158,17.8 
	158,0 140.1,0 140.1,5.4 132.6,5.4 132.6,13.4 125.7,13.4 125.7,25 120.1,25 120.1,36.6 115.1,36.6 115.1,49.9 109.3,49.9 
	109.3,63.9 105.8,63.9 105.8,76.7 104.3,76.7 "/>
</svg>
